<svg width="12" height="15" viewBox="0 0 12 15" fill="none" xmlns="http://www.w3.org/2000/svg">
<path d="M5.83333 15.0029C4.78078 14.1051 3.80516 13.1209 2.91667 12.0604C1.58333 10.4679 7.32412e-07 8.09626 7.32412e-07 5.83626C-0.000577516 4.68206 0.341258 3.55363 0.982245 2.59378C1.62323 1.63393 2.53456 0.885807 3.60089 0.44409C4.66722 0.00237226 5.84062 -0.113083 6.9726 0.112335C8.10457 0.337753 9.14423 0.893911 9.96 1.71042C10.5031 2.25114 10.9336 2.89421 11.2266 3.6024C11.5195 4.3106 11.6691 5.06987 11.6667 5.83626C11.6667 8.09626 10.0833 10.4679 8.75 12.0604C7.8615 13.1208 6.88588 14.1051 5.83333 15.0029ZM5.83333 3.33626C5.17029 3.33626 4.53441 3.59965 4.06557 4.06849C3.59673 4.53733 3.33333 5.17322 3.33333 5.83626C3.33333 6.4993 3.59673 7.13519 4.06557 7.60403C4.53441 8.07287 5.17029 8.33626 5.83333 8.33626C6.49638 8.33626 7.13226 8.07287 7.6011 7.60403C8.06994 7.13519 8.33333 6.4993 8.33333 5.83626C8.33333 5.17322 8.06994 4.53733 7.6011 4.06849C7.13226 3.59965 6.49638 3.33626 5.83333 3.33626Z" fill="#B59571"/>
</svg>
