<svg width="228" height="28" viewBox="0 0 228 28" fill="none" xmlns="http://www.w3.org/2000/svg">
<path d="M0.9 13C0.9 10.96 1.58 9.24667 2.94 7.86C4.32667 6.47333 6.07333 5.78 8.18 5.78C10.2867 5.78 12.0267 6.44667 13.4 7.78C14.7867 9.12667 15.48 10.8667 15.48 13C15.48 15.0933 14.7867 16.82 13.4 18.18C12.0133 19.54 10.2733 20.22 8.18 20.22C6.07333 20.22 4.33333 19.5533 2.96 18.22C1.58667 16.8867 0.9 15.1467 0.9 13ZM3.5 13C3.5 14.4133 3.94667 15.5867 4.84 16.52C5.73333 17.4533 6.84667 17.92 8.18 17.92C9.62 17.92 10.76 17.4533 11.6 16.52C12.4533 15.5867 12.88 14.4133 12.88 13C12.88 11.5733 12.4267 10.3933 11.52 9.46C10.6133 8.54 9.5 8.08 8.18 8.08C6.83333 8.08 5.71333 8.54 4.82 9.46C3.94 10.38 3.5 11.56 3.5 13ZM25.025 14.94V20H22.565V6C23.1517 6 23.785 5.99333 24.465 5.98C25.1583 5.96667 25.8517 5.96 26.545 5.96C27.5317 5.96 28.385 6.08667 29.105 6.34C29.8383 6.58 30.405 6.92 30.805 7.36C31.205 7.78667 31.4983 8.26 31.685 8.78C31.8717 9.28667 31.965 9.84667 31.965 10.46C31.965 11.7267 31.5117 12.8 30.605 13.68C29.7117 14.56 28.4583 15 26.845 15C26.0317 15 25.425 14.98 25.025 14.94ZM26.785 8.26L25.025 8.3V12.6C25.7317 12.6667 26.3117 12.7 26.765 12.7C27.5517 12.7 28.1783 12.5067 28.645 12.12C29.125 11.7333 29.365 11.1733 29.365 10.44C29.365 8.98667 28.505 8.26 26.785 8.26ZM43.1111 20H34.8111V6H42.9111V8.3H37.2711V11.78H42.3111V14.08H37.2711V17.7H43.1111V20ZM56.035 16.8L56.975 18.64C56.535 19.1067 55.9017 19.4867 55.075 19.78C54.2617 20.0733 53.4017 20.22 52.495 20.22C50.3617 20.22 48.6217 19.56 47.275 18.24C45.9417 16.92 45.275 15.1733 45.275 13C45.275 10.92 45.9083 9.19333 47.175 7.82C48.4283 6.46 50.1817 5.78 52.435 5.78C54.2217 5.78 55.6417 6.25333 56.695 7.2L55.595 9.02C54.6483 8.39333 53.595 8.08 52.435 8.08C51.1017 8.08 50.0083 8.52667 49.155 9.42C48.3017 10.3133 47.875 11.5067 47.875 13C47.875 14.4667 48.3217 15.6533 49.215 16.56C50.1217 17.4667 51.2883 17.92 52.715 17.92C53.9417 17.92 55.0483 17.5467 56.035 16.8ZM62.2205 8.3H57.6805V6H69.2205V8.3H64.6805V20H62.2205V8.3ZM69.6695 13C69.6695 10.96 70.3495 9.24667 71.7095 7.86C73.0962 6.47333 74.8429 5.78 76.9495 5.78C79.0562 5.78 80.7962 6.44667 82.1695 7.78C83.5562 9.12667 84.2495 10.8667 84.2495 13C84.2495 15.0933 83.5562 16.82 82.1695 18.18C80.7829 19.54 79.0429 20.22 76.9495 20.22C74.8429 20.22 73.1029 19.5533 71.7295 18.22C70.3562 16.8867 69.6695 15.1467 69.6695 13ZM72.2695 13C72.2695 14.4133 72.7162 15.5867 73.6095 16.52C74.5029 17.4533 75.6162 17.92 76.9495 17.92C78.3895 17.92 79.5295 17.4533 80.3695 16.52C81.2229 15.5867 81.6495 14.4133 81.6495 13C81.6495 11.5733 81.1962 10.3933 80.2895 9.46C79.3829 8.54 78.2695 8.08 76.9495 8.08C75.6029 8.08 74.4829 8.54 73.5895 9.46C72.7095 10.38 72.2695 11.56 72.2695 13ZM89.5563 14.94V20H87.0963V6C87.6829 6 88.3163 5.99333 88.9963 5.98C89.6896 5.96667 90.3829 5.96 91.0763 5.96C92.0629 5.96 92.9163 6.08667 93.6363 6.34C94.3696 6.58 94.9363 6.92 95.3363 7.36C95.7363 7.78667 96.0296 8.26 96.2163 8.78C96.4029 9.28667 96.4963 9.84667 96.4963 10.46C96.4963 11.7267 96.0429 12.8 95.1363 13.68C94.2429 14.56 92.9896 15 91.3763 15C90.5629 15 89.9563 14.98 89.5563 14.94ZM91.3163 8.26L89.5563 8.3V12.6C90.2629 12.6667 90.8429 12.7 91.2963 12.7C92.0829 12.7 92.7096 12.5067 93.1763 12.12C93.6563 11.7333 93.8963 11.1733 93.8963 10.44C93.8963 8.98667 93.0363 8.26 91.3163 8.26ZM98.7333 20H96.2533L102.173 5.96H104.333L110.253 20H107.633L106.173 16.42H100.193L98.7333 20ZM105.233 14.12L103.193 9.14L101.133 14.12H105.233ZM123.65 20H121.21V14.02H114.81V20H112.35V6H114.81V11.72H121.21V6H123.65V20ZM135.826 20H127.526V6H135.626V8.3H129.986V11.78H135.026V14.08H129.986V17.7H135.826V20Z" fill="#333333"/>
<rect x="168" y="12.5" width="60" height="3" fill="#B59571"/>
</svg>
