<svg width="200" height="28" viewBox="0 0 200 28" fill="none" xmlns="http://www.w3.org/2000/svg">
<path d="M2.54 22.5H0.24V17.7H1.74C2.14 17.2333 2.57333 16.2 3.04 14.6C3.52 12.96 3.80667 11.0267 3.9 8.8L4.04 6H12.72V17.7H14.62V22.5H12.32V20H2.54V22.5ZM6.42 8.3L6.2 10.74C6.08 12.42 5.83333 13.8933 5.46 15.16C5.07333 16.48 4.73333 17.3267 4.44 17.7H10.28V8.3H6.42ZM15.7438 13C15.7438 10.96 16.4238 9.24667 17.7837 7.86C19.1704 6.47333 20.9171 5.78 23.0238 5.78C25.1304 5.78 26.8704 6.44667 28.2438 7.78C29.6304 9.12667 30.3238 10.8667 30.3238 13C30.3238 15.0933 29.6304 16.82 28.2438 18.18C26.8571 19.54 25.1171 20.22 23.0238 20.22C20.9171 20.22 19.1771 19.5533 17.8038 18.22C16.4304 16.8867 15.7438 15.1467 15.7438 13ZM18.3438 13C18.3438 14.4133 18.7904 15.5867 19.6838 16.52C20.5771 17.4533 21.6904 17.92 23.0238 17.92C24.4638 17.92 25.6038 17.4533 26.4438 16.52C27.2971 15.5867 27.7238 14.4133 27.7238 13C27.7238 11.5733 27.2704 10.3933 26.3638 9.46C25.4571 8.54 24.3438 8.08 23.0238 8.08C21.6771 8.08 20.5571 8.54 19.6638 9.46C18.7838 10.38 18.3438 11.56 18.3438 13ZM42.8905 16.8L43.8305 18.64C43.3905 19.1067 42.7571 19.4867 41.9305 19.78C41.1171 20.0733 40.2571 20.22 39.3505 20.22C37.2171 20.22 35.4771 19.56 34.1305 18.24C32.7971 16.92 32.1305 15.1733 32.1305 13C32.1305 10.92 32.7638 9.19333 34.0305 7.82C35.2838 6.46 37.0371 5.78 39.2905 5.78C41.0771 5.78 42.4971 6.25333 43.5505 7.2L42.4505 9.02C41.5038 8.39333 40.4505 8.08 39.2905 8.08C37.9571 8.08 36.8638 8.52667 36.0105 9.42C35.1571 10.3133 34.7305 11.5067 34.7305 13C34.7305 14.4667 35.1771 15.6533 36.0705 16.56C36.9771 17.4667 38.1438 17.92 39.5705 17.92C40.7971 17.92 41.9038 17.5467 42.8905 16.8ZM49.0759 8.3H44.5359V6H56.0759V8.3H51.5359V20H49.0759V8.3ZM57.6591 20H55.1791L61.0991 5.96H63.2591L69.1791 20H66.5591L65.0991 16.42H59.1191L57.6591 20ZM64.1591 14.12L62.1191 9.14L60.0591 14.12H64.1591ZM71.2759 19.98V6.04C72.7159 5.97333 74.0626 5.94 75.3159 5.94C76.8626 5.94 78.0159 6.24667 78.7759 6.86C79.5359 7.47333 79.9159 8.32 79.9159 9.4C79.9159 10.9067 79.2493 11.9667 77.9159 12.58V12.62C78.6759 12.82 79.2759 13.2 79.7159 13.76C80.1559 14.3067 80.3759 15.0133 80.3759 15.88C80.3759 17.24 79.9093 18.28 78.9759 19C78.0426 19.72 76.7759 20.08 75.1759 20.08C73.5759 20.08 72.2759 20.0467 71.2759 19.98ZM75.4759 13.98H73.7359V17.68C74.3626 17.7467 74.9026 17.78 75.3559 17.78C77.0626 17.78 77.9159 17.1067 77.9159 15.76C77.9159 15.1733 77.7026 14.7333 77.2759 14.44C76.8493 14.1333 76.2493 13.98 75.4759 13.98ZM75.2759 8.24C74.6893 8.24 74.1759 8.26 73.7359 8.3V11.84H75.3959C76.0226 11.84 76.5226 11.68 76.8959 11.36C77.2826 11.04 77.4759 10.58 77.4759 9.98C77.4759 9.42 77.2826 8.99333 76.8959 8.7C76.5093 8.39333 75.9693 8.24 75.2759 8.24ZM86.0797 20H83.6197V6H86.0797V12.64L91.5997 6H94.5597L88.7997 12.52L94.9197 20H91.7997L86.0797 12.78V20ZM97.62 20H95.14L101.06 5.96H103.22L109.14 20H106.52L105.06 16.42H99.08L97.62 20ZM104.12 14.12L102.08 9.14L100.02 14.12H104.12Z" fill="#333333"/>
<rect x="140" y="12.5" width="60" height="3" fill="#B59571"/>
</svg>
