<svg width="157" height="28" viewBox="0 0 157 28" fill="none" xmlns="http://www.w3.org/2000/svg">
<path d="M4.4 20H1.94V6H4.42L9.2 12.54L13.76 6H16.08V20H13.64V9.88L9.22 16.1H8.86L4.4 9.94V20ZM28.2673 20H19.9673V6H28.0673V8.3H22.4273V11.78H27.4673V14.08H22.4273V17.7H28.2673V20ZM42.7713 20H40.3313V14.02H33.9313V20H31.4713V6H33.9313V11.72H40.3313V6H42.7713V20ZM49.107 20H46.647V6H49.107V11.72H51.487C51.7537 9.97333 52.5004 8.54667 53.727 7.44C54.9804 6.33333 56.5137 5.78 58.327 5.78C60.4204 5.78 62.127 6.44667 63.447 7.78C64.767 9.1 65.427 10.84 65.427 13C65.427 15.12 64.7604 16.8533 63.427 18.2C62.107 19.5467 60.407 20.22 58.327 20.22C56.527 20.22 54.9804 19.6533 53.687 18.52C52.4204 17.3867 51.6737 15.8867 51.447 14.02H49.107V20ZM53.987 13C53.987 14.4 54.4137 15.5667 55.267 16.5C56.1337 17.4467 57.1804 17.92 58.407 17.92C59.8204 17.92 60.907 17.46 61.667 16.54C62.4404 15.6333 62.827 14.4533 62.827 13C62.827 11.5333 62.4204 10.3533 61.607 9.46C60.7804 8.54 59.7137 8.08 58.407 8.08C57.1404 8.08 56.087 8.54 55.247 9.46C54.407 10.38 53.987 11.56 53.987 13Z" fill="#333333"/>
<rect x="97" y="12.5" width="60" height="3" fill="#B59571"/>
</svg>
