<svg width="40" height="40" viewBox="0 0 40 40" fill="none" xmlns="http://www.w3.org/2000/svg">
<g clip-path="url(#clip0_12101_24)">
<path d="M10.6593 18.2813C10.1847 18.2813 9.78031 18.3779 9.54758 18.4487C9.41384 18.4894 9.32162 18.6056 9.2984 18.7435C9.2454 19.0582 9.57063 19.3392 9.88742 19.3005C10.0308 19.283 10.1922 19.2714 10.3683 19.2714C10.7755 19.2714 11.0729 19.3167 11.0729 19.6474C11.0729 19.8158 10.9263 19.9131 10.7582 19.9037C10.6876 19.8997 10.6176 19.8967 10.5673 19.8967C9.62181 19.8967 8.62889 20.299 8.62889 21.5164C8.62889 22.4753 9.27975 22.6942 9.68414 22.6942C10.1711 22.6942 10.4833 22.4948 10.6516 22.3475C10.7375 22.2723 10.7963 22.2966 10.7864 22.4104C10.7771 22.5181 10.862 22.6106 10.97 22.6106H11.3051C11.5498 22.6106 11.7572 22.4306 11.7918 22.1884L12.1282 19.829C12.1499 19.677 12.1658 19.5229 12.1475 19.3704C12.0206 18.3173 11.0213 18.2813 10.6593 18.2813ZM10.1197 21.7777C9.78045 21.7777 9.69193 21.5192 9.69193 21.3648C9.69193 21.066 9.85411 20.7062 10.6551 20.7062C10.7978 20.7067 10.9004 20.8302 10.8742 20.9705C10.8146 21.2905 10.6149 21.7777 10.1197 21.7777ZM13.534 19.6467C13.534 20.1927 14.8364 19.9243 14.8364 21.2827C14.8364 22.7352 13.4292 22.6715 13.1834 22.6715C13.086 22.6715 12.9958 22.6701 12.9122 22.6675C12.3612 22.6507 12.0196 22.1265 12.1027 21.5816C12.1041 21.5745 12.563 21.7487 13.0737 21.7487C13.3683 21.7487 13.7507 21.7197 13.7507 21.3684C13.7507 20.8401 12.3824 20.9675 12.3824 19.7154C12.3824 18.6113 13.2025 18.2884 14.0113 18.2884C14.2155 18.2884 14.3939 18.2975 14.5417 18.3098C14.8133 18.3325 14.99 18.5823 14.9514 18.8521C14.9123 19.1254 14.667 19.32 14.3915 19.3021C14.2832 19.295 14.1856 19.2898 14.1353 19.2898C13.7458 19.2905 13.534 19.3755 13.534 19.6467ZM16.1282 21.3096C16.1041 21.459 16.1459 21.6623 16.5262 21.6623C16.6759 21.6623 16.7885 21.7626 16.7667 21.9108L16.7206 22.2245C16.6907 22.4278 16.546 22.6034 16.3451 22.6466C16.2081 22.6761 16.0398 22.7013 15.852 22.7027C15.3428 22.7076 14.9809 22.4215 14.9809 21.7763C14.9809 21.4143 15.4141 18.8633 15.571 18.0187C15.6035 17.8436 15.7257 17.748 15.9039 17.748H16.3953C16.5642 17.748 16.6923 17.9003 16.6632 18.0667L16.6554 18.1116C16.6305 18.2545 16.7405 18.3854 16.8855 18.3854C17.027 18.3854 17.136 18.5102 17.117 18.6504L17.0529 19.1233C17.0303 19.2897 16.8883 19.4137 16.7204 19.4137C16.5558 19.4137 16.4155 19.5331 16.3892 19.6956L16.1282 21.3096ZM-nan -nanL20.3449 20.8585C20.3449 20.8585 20.4887 20.1503 20.4887 19.862C20.4887 19.1418 20.1303 18.2636 18.9306 18.2636C17.8314 18.2643 17.0177 19.4484 17.0177 20.7869C17.0177 22.3316 18.0368 22.6984 18.9058 22.6984C19.3575 22.6984 19.6666 22.6413 19.8505 22.5915C19.9857 22.5548 20.075 22.4376 20.1002 22.2998C20.1651 21.9447 19.7963 21.6452 19.4401 21.7033C19.3256 21.722 19.2075 21.7338 19.0921 21.7338C18.8641 21.7338 18.6882 21.7008 18.5527 21.6476C18.0173 21.4373 18.5306 20.8585 19.1059 20.8585H20.3449L-nan -nanZM18.9341 19.243C19.1295 19.243 19.2516 19.3126 19.3272 19.4094C19.5333 19.6735 19.1654 19.9916 18.8304 19.9916C18.4954 19.9916 18.2344 19.6899 18.4626 19.4446C18.5694 19.3299 18.7209 19.243 18.9341 19.243ZM7.94477 17.4102C8.50812 17.4102 8.93683 17.9157 8.84481 18.4715L8.23541 22.1519C8.19112 22.4194 7.9598 22.6155 7.68868 22.6155H7.4316C7.22585 22.6155 7.06883 22.4317 7.10107 22.2285C7.16475 21.827 6.5924 21.6806 6.45545 22.0633L6.3445 22.3733C6.2925 22.5186 6.15479 22.6155 6.00044 22.6155H5.84325C5.65507 22.6155 5.50122 22.4655 5.49653 22.2774C5.48608 21.8576 4.87803 21.8141 4.80788 22.2281L4.79243 22.3192C4.76343 22.4903 4.61521 22.6155 4.44166 22.6155H4.30264C3.98086 22.6155 3.73622 22.3264 3.7895 22.0091L4.43944 18.1379C4.50996 17.7178 4.87359 17.4102 5.29953 17.4102H5.69215C5.94992 17.4102 6.16013 17.6167 6.16465 17.8745C6.17394 18.4048 6.91544 18.5198 7.08494 18.0172L7.17057 17.7633C7.24174 17.5523 7.43961 17.4102 7.66231 17.4102H7.94477ZM22.555 15.9611C22.7125 16.3293 22.4315 16.7246 22.031 16.7246H18.0741C17.6641 16.7246 17.3226 16.4106 17.5076 16.0446C17.5987 15.8643 17.8509 15.6248 18.0529 15.6248H22.0332C22.2594 15.6248 22.466 15.7532 22.555 15.9611ZM21.1906 13.6647C21.4803 14.0333 21.2022 14.5461 20.7334 14.5461H19.3616C18.91 14.5461 18.6333 14.0544 18.893 13.6849C18.9986 13.5346 19.1728 13.447 19.3566 13.447H20.7349C20.9122 13.447 21.0811 13.5253 21.1906 13.6647ZM20.0028 27.6085C19.9992 27.6116 19.9937 27.6117 19.9902 27.6085C19.8742 27.5035 19.7616 27.3951 19.6519 27.2838C19.354 26.9818 19.583 26.4923 20.0072 26.4923C20.4312 26.4923 20.6558 26.9777 20.3551 27.2766C20.2472 27.3837 20.137 27.4886 20.0245 27.5911C20.0242 27.5913 20.0239 27.5915 20.0235 27.5915H20.0223C20.0221 27.5915 20.022 27.5918 20.0221 27.5919C20.0222 27.5921 20.0222 27.5925 20.022 27.5927C20.0158 27.5979 20.0092 27.6031 20.0028 27.6085ZM21.9932 25.1559C21.8912 25.3312 21.7019 25.4342 21.4991 25.4342H18.5104C18.3065 25.4342 18.1164 25.3305 18.0125 25.155C17.792 24.7827 18.0721 24.3351 18.5048 24.3351H21.4968C21.928 24.3351 22.2101 24.7833 21.9932 25.1559ZM22.9129 18.3337C23.0202 18.3326 23.0772 18.4398 23.0329 18.5375C22.9744 18.6664 22.9181 18.808 22.8624 18.9963C22.7677 19.3164 22.3565 19.5431 22.1824 19.8279C21.9326 20.2367 21.8275 21.1161 21.6589 22.1625C21.6158 22.4295 21.3842 22.624 21.1137 22.624C20.7706 22.624 20.5091 22.317 20.5636 21.9783L21.0736 18.8102C21.1128 18.5666 21.3231 18.3875 21.5698 18.3875H22.0555C22.11 18.3875 22.1515 18.4362 22.1429 18.49C22.1272 18.5883 22.3044 18.6617 22.3762 18.5926C22.5202 18.4541 22.7051 18.3337 22.9129 18.3337ZM25.1473 21.6347C25.1615 21.6347 25.1759 21.6343 25.1906 21.6335C25.5675 21.6138 25.9655 21.8878 25.9045 22.2602C25.8747 22.4416 25.7405 22.5887 25.5603 22.6248C25.3606 22.6648 25.0981 22.7083 24.8994 22.7083C23.5949 22.7083 22.9327 21.8082 22.9327 20.4449C22.9327 18.3889 24.1601 17.294 25.4214 17.294C25.7206 17.294 26.0453 17.368 26.286 17.4381C26.5036 17.5015 26.6279 17.72 26.5933 17.944C26.5382 18.3016 26.1053 18.4952 25.749 18.4323C25.6608 18.4168 25.5675 18.4073 25.471 18.4073C24.7273 18.4073 24.0602 19.117 24.0602 20.4073C24.0602 21.0426 24.3711 21.6347 25.1473 21.6347ZM35.8173 22.0129C35.7642 22.0412 35.7231 22.0823 35.6933 22.1361C35.6636 22.1892 35.6487 22.2444 35.6487 22.3018C35.6487 22.3592 35.6636 22.4137 35.6933 22.4661C35.7224 22.5185 35.7635 22.5603 35.8159 22.5901C35.869 22.6191 35.9235 22.634 35.9802 22.634C36.0382 22.634 36.0935 22.6191 36.1452 22.5901C36.1976 22.5603 36.2387 22.5185 36.2677 22.4661C36.2982 22.4137 36.3116 22.3592 36.3116 22.3018C36.3116 22.2437 36.2975 22.1885 36.2677 22.1361C36.2387 22.0823 36.1962 22.0412 36.1431 22.0129C36.0907 21.9838 36.0368 21.9697 35.9802 21.9697C35.9256 21.9697 35.8711 21.9838 35.8173 22.0129ZM36.2203 22.1623C36.245 22.2069 36.2585 22.2529 36.2585 22.3004C36.2585 22.3478 36.2465 22.3946 36.2217 22.4378C36.1976 22.4817 36.1636 22.515 36.119 22.5412C36.0751 22.5653 36.0297 22.578 35.9823 22.578C35.9341 22.578 35.8881 22.5653 35.8449 22.5412C35.8003 22.5164 35.767 22.4824 35.7415 22.4378C35.716 22.3932 35.7047 22.3478 35.7047 22.3004C35.7047 22.2529 35.7167 22.2069 35.7429 22.1623C35.7677 22.1184 35.801 22.0844 35.8463 22.0596C35.8916 22.0348 35.9363 22.0242 35.9823 22.0242C36.0283 22.0242 36.0737 22.0362 36.1169 22.0596C36.1622 22.0844 36.1955 22.1177 36.2203 22.1623ZM31.7826 20.9045C31.7826 21.8004 32.228 22.6779 33.1374 22.6779C33.493 22.6779 33.7624 22.5433 33.9345 22.4202C34.0035 22.3708 34.1294 22.4328 34.1191 22.517C34.113 22.5671 34.1521 22.6113 34.2026 22.6113H34.7135C34.9769 22.6113 35.2014 22.42 35.2433 22.1599L35.9054 18.042C35.9583 17.7127 35.7036 17.4143 35.37 17.4149L35.2958 17.4151C35.0734 17.4155 34.8841 17.5771 34.8486 17.7967C34.7843 18.1958 34.1637 18.3722 33.7629 18.3191C33.7163 18.3129 33.6683 18.3096 33.619 18.3096C32.6169 18.3103 31.7826 19.5178 31.7826 20.9045ZM34.4016 20.2678C34.4016 20.845 34.1161 21.6163 33.5241 21.6163C33.1303 21.6163 32.9462 21.2862 32.9462 20.7678C32.9462 19.9201 33.3265 19.3613 33.8074 19.3613C34.1997 19.362 34.4016 19.6318 34.4016 20.2678ZM36.1799 25.7416C36.1747 25.7369 36.178 25.7183 36.1845 25.7159C36.1998 25.7104 36.213 25.7018 36.2238 25.6906C36.2415 25.6715 36.2514 25.6488 36.2514 25.6226C36.2514 25.6042 36.2458 25.5865 36.2351 25.5702C36.2245 25.5539 36.2089 25.5419 36.1898 25.5355C36.1721 25.5284 36.1416 25.5249 36.0999 25.5249C36.0318 25.5249 35.9766 25.5801 35.9766 25.6481V25.8535C35.9766 25.8695 35.9896 25.8825 36.0057 25.8825C36.0217 25.8825 36.0347 25.8695 36.0347 25.8535V25.7636C36.0347 25.7452 36.0496 25.7303 36.068 25.7303C36.0878 25.7303 36.1041 25.7345 36.1133 25.743C36.1282 25.7551 36.1494 25.7827 36.1742 25.8259L36.1969 25.8671C36.2021 25.8766 36.2121 25.8825 36.223 25.8825C36.2465 25.8825 36.2608 25.8567 36.2483 25.8369L36.233 25.8124C36.2118 25.7799 36.194 25.7565 36.1799 25.7416ZM36.1041 25.6821H36.0871C36.0574 25.6821 36.0333 25.658 36.0333 25.6283C36.0333 25.5986 36.0574 25.5745 36.0871 25.5745H36.0999C36.1275 25.5745 36.1459 25.5766 36.1565 25.5808C36.1678 25.5851 36.1749 25.5915 36.1813 25.5993C36.187 25.6078 36.1898 25.617 36.1898 25.6269C36.1898 25.6432 36.1841 25.6573 36.1721 25.6672C36.1601 25.6772 36.1367 25.6821 36.1041 25.6821ZM38.9703 7.03906H1.02974C0.46034 7.03906 0 7.50011 0 8.06881V31.9321C0 32.5008 0.46034 32.9619 1.02974 32.9619H38.9703C39.5397 32.9619 40 32.5008 40 31.9321V8.06881C40 7.50011 39.5397 7.03906 38.9703 7.03906ZM36.4086 25.8634C36.3789 25.9173 36.3385 25.9583 36.2861 25.9874C36.2337 26.0164 36.1785 26.0313 36.1218 26.0313C36.0637 26.0313 36.0085 26.0164 35.9561 25.9874C35.9044 25.9583 35.8633 25.9173 35.8329 25.8634C35.8038 25.8117 35.789 25.7565 35.789 25.6991C35.789 25.6418 35.8038 25.5872 35.8336 25.5334C35.8626 25.4796 35.9051 25.4392 35.9575 25.4102C36.0106 25.3825 36.0644 25.3677 36.1211 25.3677C36.1771 25.3677 36.2309 25.3825 36.2833 25.4102C36.3364 25.4392 36.3782 25.4796 36.4072 25.5334C36.437 25.5872 36.4511 25.6425 36.4511 25.6991C36.4511 25.7558 36.4384 25.8124 36.4086 25.8634ZM37.1509 20.0008C37.1523 25.6701 32.5588 30.2678 26.8888 30.2692C22.6063 30.2704 17.3986 30.2664 13.1161 30.2664C7.44972 30.2664 2.85057 25.668 2.85057 20.0008C2.85057 14.3563 7.4136 9.77136 13.0503 9.73453C13.0722 9.73453 13.0942 9.73453 13.1161 9.73453C17.3995 9.73453 22.6005 9.73355 26.8839 9.7324C32.552 9.73028 37.148 14.323 37.1523 19.9905C37.1523 19.9939 37.1509 19.9974 37.1509 20.0008ZM35.9603 22.1276C35.8915 22.1276 35.8357 22.1834 35.8357 22.2522V22.4555C35.8357 22.4715 35.8487 22.4845 35.8647 22.4845C35.8808 22.4845 35.8938 22.4715 35.8938 22.4555V22.3663C35.8938 22.3479 35.9087 22.333 35.9271 22.333C35.9476 22.333 35.9639 22.3372 35.9738 22.345C35.9887 22.3578 36.0085 22.3847 36.0347 22.4293L36.0567 22.4697C36.0619 22.4793 36.0719 22.4852 36.0829 22.4852C36.1063 22.4852 36.1205 22.4595 36.1081 22.4396L36.0928 22.4151C36.0722 22.3818 36.0538 22.3585 36.0404 22.3443C36.0346 22.339 36.0376 22.3213 36.0449 22.3186C36.0599 22.313 36.0728 22.3045 36.0836 22.2933C36.1013 22.2749 36.1119 22.2508 36.1119 22.2253C36.1119 22.2076 36.1062 22.1892 36.0949 22.1729C36.0836 22.1573 36.0687 22.1453 36.051 22.1382C36.0333 22.1311 36.0021 22.1276 35.9603 22.1276ZM36.0418 22.2005C36.0482 22.2097 36.051 22.2175 36.051 22.2296C36.051 22.2452 36.0446 22.2586 36.034 22.2685C36.0205 22.2791 35.9986 22.2834 35.9653 22.2834H35.949C35.9193 22.2834 35.8952 22.2593 35.8952 22.2296C35.8952 22.1998 35.9193 22.1757 35.949 22.1757H35.9603C35.971 22.1757 35.9803 22.1761 35.9883 22.1766C36.0086 22.178 36.0311 22.1832 36.0418 22.2005ZM28.3775 18.2813C27.9019 18.2813 27.4974 18.3779 27.2647 18.4487C27.1311 18.4894 27.039 18.6055 27.0157 18.7432C26.9625 19.058 27.2876 19.3392 27.6045 19.3005C27.7478 19.283 27.9091 19.2714 28.085 19.2714C28.4922 19.2714 28.7904 19.3167 28.7904 19.6474C28.7904 19.8164 28.6427 19.9131 28.4739 19.9037C28.4033 19.8997 28.3333 19.8967 28.2826 19.8967C27.3378 19.8967 26.3456 20.299 26.3456 21.5164C26.3456 22.4753 26.9972 22.6942 27.4008 22.6942C27.8879 22.6942 28.2001 22.4944 28.3684 22.347C28.4542 22.2718 28.513 22.2963 28.5032 22.4101C28.4938 22.5179 28.5789 22.6106 28.6871 22.6106H29.0214C29.2659 22.6106 29.4732 22.4308 29.5078 22.1887L29.8768 19.6007C29.8789 18.3223 28.7642 18.2813 28.3775 18.2813ZM27.8392 21.7777C27.4993 21.7777 27.4115 21.5192 27.4115 21.3648C27.4115 21.066 27.5737 20.7062 28.3746 20.7062C28.5171 20.7067 28.6196 20.8304 28.5933 20.9704C28.5333 21.2905 28.3334 21.7777 27.8392 21.7777ZM32.0393 18.9969C31.9442 19.3164 31.5335 19.542 31.3595 19.8263C31.1096 20.2347 31.0048 21.1146 30.8355 22.162C30.7923 22.429 30.5606 22.6233 30.2902 22.6233C29.9471 22.6233 29.6854 22.3162 29.74 21.9774L30.2498 18.8101C30.2891 18.5661 30.4996 18.3868 30.7467 18.3868H31.2322C31.2869 18.3868 31.3286 18.4357 31.32 18.4897C31.3043 18.5884 31.4818 18.6617 31.5538 18.5924C31.6981 18.4537 31.8833 18.333 32.0914 18.333C32.1983 18.333 32.255 18.4402 32.2107 18.5375C32.152 18.6664 32.0954 18.8082 32.0393 18.9969Z" fill="white"/>
</g>
<defs>
<clipPath id="clip0_12101_24">
<rect width="40" height="40" fill="white"/>
</clipPath>
</defs>
</svg>
