<svg width="34" height="24" viewBox="0 0 34 24" fill="none" xmlns="http://www.w3.org/2000/svg">
<path d="M0 1.65833C0 0.741666 0.743333 0 1.65833 0H15.0083C15.4482 1.31076e-08 15.87 0.174716 16.181 0.485714C16.4919 0.796712 16.6667 1.21852 16.6667 1.65833C16.6667 2.09815 16.4919 2.51995 16.181 2.83095C15.87 3.14195 15.4482 3.31667 15.0083 3.31667H1.65833C1.21852 3.31667 0.796713 3.14195 0.485715 2.83095C0.174717 2.51995 0 2.09815 0 1.65833ZM0 11.6667C0 10.75 0.743333 10.0083 1.65833 10.0083H31.675C32.1148 10.0083 32.5366 10.1831 32.8476 10.494C33.1586 10.805 33.3333 11.2268 33.3333 11.6667C33.3333 12.1065 33.1586 12.5283 32.8476 12.8393C32.5366 13.1503 32.1148 13.325 31.675 13.325H1.65833C1.21852 13.325 0.796713 13.1503 0.485715 12.8393C0.174717 12.5283 0 12.1065 0 11.6667ZM1.65833 20.0167C1.21852 20.0167 0.796713 20.1914 0.485715 20.5024C0.174717 20.8134 0 21.2352 0 21.675C0 22.1148 0.174717 22.5366 0.485715 22.8476C0.796713 23.1586 1.21852 23.3333 1.65833 23.3333H21.675C22.1148 23.3333 22.5366 23.1586 22.8476 22.8476C23.1586 22.5366 23.3333 22.1148 23.3333 21.675C23.3333 21.2352 23.1586 20.8134 22.8476 20.5024C22.5366 20.1914 22.1148 20.0167 21.675 20.0167H1.65833Z" fill="#B59571"/>
</svg>
