<svg width="40" height="26" viewBox="0 0 40 26" fill="none" xmlns="http://www.w3.org/2000/svg">
<g clip-path="url(#clip0_11034_15)">
<path d="M2.05128 0H37.9487C39.0821 0 40 0.917949 40 2.05128V23.5897C40 24.7231 39.0821 25.641 37.9487 25.641H2.05128C0.917949 25.641 0 24.7231 0 23.5897V2.05128C0 0.917949 0.917949 0 2.05128 0Z" fill="white"/>
<path d="M27.9023 12.3335V17.872H30.9793V14.5899H34.4664C35.9331 14.5796 37.1793 13.6412 37.6511 12.3335H27.9023Z" fill="#333333"/>
<path d="M27.4922 7.76929C27.6717 10.0308 29.8153 11.8206 32.4307 11.8206C32.4409 11.8206 37.7794 11.8206 37.7794 11.8206C37.8204 11.6154 37.8409 11.4001 37.8409 11.1795C37.8409 9.30262 36.3281 7.78467 34.4563 7.76929H27.4922Z" fill="#333333"/>
<path d="M22.9384 11.7642V11.759V11.7642C22.9743 11.7026 23.0307 11.6667 23.1025 11.6667C23.205 11.6667 23.282 11.7488 23.2871 11.8462V17.8206H26.364V7.76929H23.2871C22.8973 7.78467 22.4563 8.06672 22.2922 8.42057L19.8461 13.6719C19.8409 13.6924 19.8307 13.7129 19.8204 13.7334C19.7845 13.7847 19.723 13.8206 19.6512 13.8206C19.5384 13.8206 19.4461 13.7283 19.4461 13.6154V7.76929H16.3691V17.8206H19.4461C19.8307 17.8001 20.2614 17.518 20.4255 17.1693L22.9384 11.7795C22.9332 11.7744 22.9384 11.7693 22.9384 11.7642Z" fill="#333333"/>
<path d="M11.4512 11.9385L9.65124 17.8206H7.43586L5.64099 11.9334C5.6256 11.8411 5.54355 11.7693 5.44099 11.7693C5.32817 11.7693 5.24099 11.8616 5.24099 11.9693V17.8154H2.16406V7.76416H4.80509H5.5897C6.15381 7.76416 6.74868 8.20519 6.91278 8.74365L8.41022 13.6411C8.48714 13.8872 8.60509 13.8821 8.68201 13.6411L10.1794 8.74365C10.3435 8.20006 10.9384 7.76416 11.5025 7.76416H12.2871H14.9282V17.8154H11.8512V11.9693C11.8512 11.9693 11.8512 11.9693 11.8512 11.9642C11.8512 11.8513 11.7589 11.7642 11.6512 11.7642C11.5487 11.7693 11.4666 11.8411 11.4512 11.9385Z" fill="#333333"/>
</g>
<defs>
<clipPath id="clip0_11034_15">
<rect width="40" height="25.641" fill="white"/>
</clipPath>
</defs>
</svg>
