<svg width="14" height="14" viewBox="0 0 14 14" fill="none" xmlns="http://www.w3.org/2000/svg">
<path d="M12.4975 13.3333C5.38834 13.3433 -0.00749219 7.88333 7.80891e-06 0.835833C7.80891e-06 0.375 0.373341 0 0.833341 0H3.03334C3.44584 0 3.79667 0.303333 3.85751 0.711667C4.00259 1.69088 4.28744 2.64421 4.70334 3.5425L4.78917 3.7275C4.84683 3.85199 4.85923 3.9927 4.82424 4.12536C4.78925 4.25802 4.70907 4.37431 4.59751 4.45417C3.91584 4.94083 3.65584 5.92 4.18668 6.68333C4.855 7.64444 5.68913 8.47885 6.65001 9.1475C7.41417 9.6775 8.39334 9.4175 8.87918 8.73667C8.95895 8.62477 9.07534 8.54429 9.20819 8.50913C9.34104 8.47398 9.482 8.48637 9.60668 8.54417L9.79084 8.62917C10.6892 9.04583 11.6425 9.33083 12.6217 9.47583C13.03 9.53667 13.3333 9.8875 13.3333 10.3008V12.5C13.3333 12.6095 13.3118 12.7179 13.2698 12.8191C13.2279 12.9203 13.1664 13.0122 13.089 13.0896C13.0115 13.1669 12.9195 13.2283 12.8183 13.2701C12.7171 13.312 12.6087 13.3334 12.4992 13.3333H12.4975Z" fill="#B59571"/>
</svg>
