<svg width="18" height="18" viewBox="0 0 18 18" fill="none" xmlns="http://www.w3.org/2000/svg">
<path d="M8.66667 0C9.81594 0 10.9181 0.456546 11.7308 1.2692C12.5435 2.08186 13 3.18406 13 4.33333C13 5.4826 12.5435 6.58481 11.7308 7.39746C10.9181 8.21012 9.81594 8.66667 8.66667 8.66667C7.5174 8.66667 6.41519 8.21012 5.60254 7.39746C4.78988 6.58481 4.33333 5.4826 4.33333 4.33333C4.33333 3.18406 4.78988 2.08186 5.60254 1.2692C6.41519 0.456546 7.5174 0 8.66667 0ZM8.66667 10.8333C13.455 10.8333 17.3333 12.7725 17.3333 15.1667V17.3333H0V15.1667C0 12.7725 3.87833 10.8333 8.66667 10.8333Z" fill="#333333"/>
</svg>
