<svg width="40" height="27" viewBox="0 0 40 27" fill="none" xmlns="http://www.w3.org/2000/svg">
<path d="M37.3333 26.6667H2.66667C1.19444 26.6667 0 25.4722 0 24V2.66667C0 1.19444 1.19444 0 2.66667 0H37.3333C38.8056 0 40 1.19444 40 2.66667V24C40 25.4722 38.8056 26.6667 37.3333 26.6667ZM19.8222 16.4022L19.4233 18.9022C20.3011 19.2778 21.3222 19.4967 22.3944 19.4967C22.48 19.4967 22.5644 19.4956 22.6489 19.4922H22.6367C22.7344 19.4978 22.8478 19.5011 22.9633 19.5011C24.1956 19.5011 25.3378 19.1144 26.2756 18.4556L26.2567 18.4678C27.1078 17.8367 27.6544 16.8356 27.6544 15.7067C27.6544 15.7011 27.6544 15.6956 27.6544 15.69V15.6911C27.6544 14.4689 26.8367 13.4533 25.2244 12.6689C24.7511 12.4378 24.3467 12.1956 23.9667 11.9222L23.9922 11.94C23.7722 11.7956 23.6256 11.5567 23.6111 11.2822V11.28C23.6289 10.9911 23.7944 10.7444 24.0322 10.6133L24.0367 10.6111C24.35 10.4289 24.7256 10.3211 25.1278 10.3211C25.1744 10.3211 25.2211 10.3222 25.2678 10.3256H25.2611H25.35C25.3756 10.3256 25.4056 10.3244 25.4356 10.3244C26.1511 10.3244 26.83 10.4789 27.4422 10.7556L27.4111 10.7433L27.6711 10.8822L28.07 8.47C27.32 8.17333 26.45 8.00111 25.54 8.00111C25.5222 8.00111 25.5033 8.00111 25.4856 8.00111H25.4889C25.4178 7.99778 25.3344 7.99556 25.2511 7.99556C24.0333 7.99556 22.9044 8.38111 21.9811 9.03667L21.9989 9.02444C21.1633 9.62 20.6244 10.5844 20.6244 11.6756V11.6811C20.6133 12.8567 21.46 13.8722 23.1422 14.7033C23.5867 14.8978 23.97 15.1356 24.3133 15.4211L24.3056 15.4144C24.5 15.5789 24.6256 15.82 24.6356 16.09V16.0922V16.0944C24.6356 16.4489 24.4244 16.7533 24.12 16.89L24.1144 16.8922C23.7811 17.0678 23.3856 17.17 22.9656 17.17C22.9489 17.17 22.9311 17.17 22.9144 17.17H22.9167C22.8922 17.17 22.8622 17.17 22.8333 17.17C21.8811 17.17 20.9789 16.9589 20.17 16.5811L20.2089 16.5978L19.8278 16.4067L19.8222 16.4022ZM31.0722 17.67H34.7556C34.8148 17.9241 34.9307 18.4796 35.1033 19.3367H37.7778L35.4511 8.19111H33.2289C33.19 8.18778 33.1444 8.18556 33.0978 8.18556C32.4733 8.18556 31.9389 8.57222 31.7211 9.11889L31.7178 9.12889L27.4511 19.3367H30.4733L31.08 17.6711L31.0722 17.67ZM16.5456 8.19111L14.7389 19.3367H17.6211L19.4267 8.19111H16.5456ZM5.46889 10.4656L7.81333 19.3189H10.8511L15.3789 8.19111H12.3278L9.51222 15.7956L9.21667 14.25L8.21222 9.12889C8.11111 8.58556 7.64111 8.17889 7.07556 8.17889C7.01778 8.17889 6.96 8.18333 6.90445 8.19111L6.91111 8.19H2.25889L2.22444 8.41556C5.80667 9.32555 8.16 11.2889 9.22 14.2489C8.87667 13.3689 8.37556 12.6189 7.74667 12L7.74556 11.9989C7.11556 11.3522 6.35889 10.8333 5.51556 10.4789L5.47111 10.4622L5.46889 10.4656ZM34.2878 15.3778H31.8878C32.05 14.9496 32.4322 13.9126 33.0344 12.2667L33.0856 12.11C33.1322 11.9944 33.19 11.8433 33.2633 11.6589C33.3367 11.4744 33.3856 11.3233 33.4189 11.2078L33.6278 12.1622L34.2867 15.3733L34.2878 15.3778Z" fill="white"/>
</svg>
