<svg width="34" height="20" viewBox="0 0 34 20" fill="none" xmlns="http://www.w3.org/2000/svg">
<path d="M33.2811 1.47505C33.5645 2.24094 32.694 4.02801 30.6697 6.83627C30.3862 7.21922 30.0218 7.72981 29.5765 8.36805C28.6453 9.55944 28.1189 10.3466 27.9974 10.7295C27.795 11.2401 27.876 11.7295 28.2404 12.1975C28.4428 12.4528 28.9084 12.9634 29.6372 13.7293H29.6979V13.7931C31.3579 15.3674 32.4714 16.7077 33.0382 17.814L33.1597 18.0693L33.2811 18.548V19.1543L32.856 19.633L31.8236 19.8564L27.3901 19.984C27.1067 20.0266 26.7727 19.984 26.388 19.8564C26.0034 19.7287 25.7099 19.6011 25.5074 19.4735L25.143 19.2182C24.7786 18.9629 24.3738 18.5799 23.9284 18.0693C23.483 17.5587 23.0883 17.0907 22.7441 16.6652C22.4 16.2397 22.0457 15.8887 21.6813 15.6121C21.3169 15.3355 20.993 15.2398 20.7096 15.3249C20.6691 15.3249 20.6185 15.3462 20.5578 15.3887C20.497 15.4313 20.3958 15.527 20.2541 15.6759C20.1124 15.8248 19.9909 16.0057 19.8897 16.2184C19.7885 16.4312 19.6974 16.7397 19.6164 17.1439C19.5355 17.5481 19.495 18.0268 19.495 18.5799C19.495 18.7501 19.4747 18.9097 19.4342 19.0586C19.3937 19.2075 19.3533 19.3245 19.3128 19.4096L19.252 19.4735C19.0091 19.7287 18.6852 19.8564 18.2803 19.8564H16.3369C15.4867 19.9415 14.6263 19.8564 13.7558 19.6011C12.8853 19.3458 12.1262 19.016 11.4783 18.6118C10.8305 18.2076 10.2435 17.8034 9.71712 17.3992C9.19077 16.9949 8.78589 16.6439 8.50248 16.3461L8.07735 15.8993C7.95589 15.8142 7.79394 15.644 7.5915 15.3887C7.38906 15.1334 6.97406 14.5803 6.34649 13.7293C5.71893 12.8783 5.10149 11.9635 4.49417 10.9848C3.88685 10.0062 3.17831 8.71909 2.36855 7.12348C1.55879 5.52788 0.80976 3.87909 0.121464 2.17711C0.040488 1.96436 0 1.79417 0 1.66652C0 1.53887 0.020244 1.4325 0.060732 1.3474L0.121464 1.28357C0.283416 1.02828 0.60732 0.900629 1.09318 0.900629H5.891C6.01247 0.900629 6.13393 0.932541 6.25539 0.996366L6.55905 1.15593L6.61979 1.21975C6.82223 1.3474 6.96393 1.53887 7.04491 1.79417C7.28784 2.38986 7.56113 3.01746 7.86479 3.67698C8.16845 4.33649 8.40126 4.83645 8.56321 5.17685L8.80614 5.68744C9.17053 6.41078 9.50455 7.03838 9.80822 7.57025C10.1119 8.10212 10.3852 8.51698 10.6281 8.81482C10.871 9.11267 11.114 9.34669 11.3569 9.51689C11.5998 9.68709 11.8022 9.77218 11.9642 9.77218C12.1262 9.77218 12.2881 9.75091 12.4501 9.70836L12.5108 9.61262L12.7233 9.19777L12.9663 8.36805L13.1181 6.9001V4.60243C13.0776 4.13439 13.0169 3.69825 12.9359 3.29403C12.8549 2.88981 12.774 2.60261 12.693 2.43241L12.6323 2.24094C12.3488 1.81544 11.8427 1.53887 11.114 1.41122C10.9925 1.41122 11.033 1.2623 11.2354 0.964454C11.4379 0.751706 11.6605 0.581509 11.9035 0.45386C12.5108 0.113465 13.8874 -0.0354579 16.0332 0.00709157C16.9645 0.00709157 17.754 0.0921904 18.4018 0.262388C18.6042 0.304938 18.7864 0.379399 18.9484 0.485773C19.1103 0.592146 19.2318 0.741069 19.3128 0.932541C19.3937 1.12401 19.4545 1.31549 19.495 1.50696C19.5355 1.69843 19.5557 1.975 19.5557 2.33667V3.32595C19.5152 3.66634 19.495 4.09184 19.495 4.60243V6.13421C19.495 6.26186 19.4848 6.51715 19.4646 6.9001C19.4444 7.28304 19.4342 7.58089 19.4342 7.79364C19.4342 8.00638 19.4545 8.25104 19.495 8.52761C19.5355 8.80418 19.6063 9.03821 19.7075 9.22968C19.8087 9.42115 19.9403 9.55944 20.1023 9.64454C20.1833 9.68709 20.2744 9.719 20.3756 9.74027C20.4768 9.76155 20.6286 9.69772 20.8311 9.5488C21.0335 9.39988 21.2562 9.18713 21.4991 8.91056C21.742 8.63399 22.0457 8.21913 22.4101 7.66599C22.7745 7.11284 23.1591 6.4746 23.564 5.75126C24.2523 4.47478 24.8799 3.09192 25.4467 1.60269C25.4872 1.5176 25.5378 1.42186 25.5985 1.31549C25.6593 1.20911 25.7301 1.13465 25.8111 1.0921H25.8718L25.9326 1.02828L26.1755 0.964454H26.5399L31.5199 0.900629C31.9653 0.85808 32.3398 0.879355 32.6434 0.964454C32.9471 1.04955 33.1192 1.15593 33.1597 1.28357L33.2811 1.47505Z" fill="#B59571"/>
</svg>
