<svg width="34" height="23" viewBox="0 0 34 23" fill="none" xmlns="http://www.w3.org/2000/svg">
<path d="M32.6322 3.48803C32.4435 2.81489 32.0759 2.20547 31.5686 1.72455C31.0469 1.22883 30.4074 0.874235 29.7107 0.694227C27.1029 0.0068856 16.6553 0.00688576 16.6553 0.00688576C12.2999 -0.0426686 7.94545 0.175284 3.61669 0.659513C2.91989 0.85282 2.28167 1.21534 1.75878 1.71483C1.24501 2.20916 0.872878 2.81874 0.678478 3.48664C0.211493 6.00237 -0.0154003 8.55678 0.000857001 11.1154C-0.0158058 13.6718 0.210531 16.2254 0.678478 18.7442C0.868712 19.4094 1.23946 20.0162 1.75462 20.5063C2.26978 20.9965 2.9113 21.3506 3.61669 21.538C6.25913 22.224 16.6553 22.224 16.6553 22.224C21.0164 22.2736 25.3763 22.0557 29.7107 21.5714C30.4074 21.3913 31.0469 21.0368 31.5686 20.541C32.0823 20.0509 32.4475 19.4413 32.6308 18.7776C33.11 16.2628 33.343 13.7073 33.3265 11.1474C33.3625 8.57658 33.1298 6.00906 32.6322 3.48664V3.48803ZM13.3339 15.8699V6.36236L22.0263 11.1168L13.3339 15.8699Z" fill="#B59571"/>
</svg>
